PathFileType	4	(X/Y/Z)	C:/Users/beibeiliu/ov580/test_trc/User3\sequence.28_training_dense_right.trc
DataRate	CameraRate	NumFrames	NumMarkers	Units	OrigDataRate	OrigDataStartFrame	OrigNumFrames
120	120	16	19	mm	120	54	106
Frame#	Time	ThumbCMC			ThumbMCP			ThumbIP			ThumbTip			IndexMCP			IndexPIP			IndexTip			MiddleMCP			MiddlePIP			MiddleTip			RingMCP			RingPIP			RingTip			PinkyMCP			PinkyPIP			PinkyTip			BackHand1			BackHand2			BackHand3	
		X0	Y0	Z0	X1	Y1	Z1	X2	Y2	Z2	X3	Y3	Z3	X4	Y4	Z4	X5	Y5	Z5	X6	Y6	Z6	X7	Y7	Z7	X8	Y8	Z8	X9	Y9	Z9	X10	Y10	Z10	X11	Y11	Z11	X12	Y12	Z12	X13	Y13	Z13	X14	Y14	Z14	X15	Y15	Z15	X16	Y16	Z16	X17	Y17	Z17	X18	Y18	Z18	
53	0.441667	86.856	-37.2357	1.2134	68.401	-36.7821	-22.3267	57.8396	-40.8252	-46.6665	44.4073	-41.5093	-67.5799	95.3648	-44.243	-77.4829	91.8551	-47.8886	-100.005	90.6979	-48.5091	-124.779	111.963	-42.6963	-84.9606	107.802	-44.7235	-112.11	104.349	-42.6215	-137.707	138.655	-53.4245	-81.3718	137.903	-57.826	-100.486	134.499	-62.0404	-128.778	153.871	-58.5275	-61.9932	155.491	-63.2042	-81.1829	151.952	-61.4351	-102.065	143.254	-29.8756	-29.9526	145.285	-22.2898	-3.16129	110.189	-20.8995	-17.1753	
54	0.45	85.439	-33.5653	1.05809	67.3122	-33.9843	-20.0337	51.9355	-35.8452	-47.631	38.5155	-38.4929	-60.0059	88.1006	-41.9406	-81.9863	80.123	-45.7962	-104.567	78.1079	-46.6635	-124.437	104.033	-40.0979	-88.3014	96.5621	-43.3182	-112.912	88.0148	-41.9508	-135.959	129.153	-48.0116	-82.6906	132.78	-51.8079	-102.244	130.428	-55.0742	-127.044	146.788	-52.1891	-67.3985	147.193	-56.2854	-86.4023	149.145	-54.6387	-110.083	134.437	-26.2952	-34.9626	142.297	-17.0275	-5.60487	105.022	-16.3199	-21.0918	
55	0.458333	83.3614	-28.8159	-0.680702	64.5755	-27.9082	-23.5314	46.4445	-29.6647	-43.3418	32.3744	-31.3057	-62.3419	82.6059	-34.4445	-80.7187	78.3797	-38.351	-103.483	74.4404	-37.6787	-124.12	101.506	-32.5268	-88.1142	93.0464	-35.4441	-110.922	85.1839	-32.5509	-140.796	130.691	-39.5411	-80.4009	125.632	-42.0636	-106.142	132.248	-44.1926	-130.434	144.524	-44.8757	-65.4237	148.285	-47.6581	-87.8283	145.72	-44.6278	-107.686	133.643	-19.1732	-36.1811	139.257	-12.3915	-5.42717	100.389	-11.4835	-19.9246	
56	0.466667	82.8087	-24.04	-3.3584	63.0619	-23.9038	-25.2806	47.794	-23.3448	-48.1607	32.3573	-24.4597	-63.9092	88.7575	-25.8082	-83.4969	80.976	-27.7209	-103.276	78.4938	-25.167	-129.423	105.549	-22.7534	-88.4897	100.229	-25.0105	-111.278	90.2753	-21.5229	-140.794	131.073	-31.1247	-80.7508	136.499	-33.1378	-105.33	139.984	-36.1699	-129.699	146.052	-37.2484	-66.7617	153.356	-39.7598	-86.6788	156.708	-39.3081	-109.1	136.419	-14.1349	-32.9292	139.227	-6.73575	-5.58531	104.924	-7.28092	-20.7653	
57	0.475	85.852	-21.7904	-8.25257	68.3162	-20.7083	-34.7716	52.3443	-21.175	-59.8285	43.6731	-24.2796	-72.0879	98.0267	-20.7739	-86.3819	96.7526	-22.4102	-111.206	96.6258	-23.3153	-137.112	119.765	-18.5352	-92.5257	112.759	-19.153	-118.392	109.206	-18.3788	-145.827	146.685	-26.2659	-81.2642	150.226	-28.9413	-104.872	152.886	-34.361	-132.338	161.257	-31.3085	-68.7663	161.876	-35.0988	-86.2551	169.231	-35.4763	-111.476	139.268	-7.5317	-33.8454	143.248	-2.37095	-8.47722	110.598	-3.32512	-24.0194	
58	0.483333	93.2682	-23.2168	-16.6931	76.6019	-26.4523	-38.3963	62.2395	-28.6087	-63.1388	54.1642	-33.2998	-81.6848	112.806	-34.0815	-90.5988	107.955	-40.1096	-116.614	109.766	-44.7745	-138.971	132.341	-31.7798	-93.7569	131.226	-38.441	-121.741	123.383	-41.1677	-150.755	154.803	-36.8532	-83.0209	166.091	-47.0887	-104.916	169.852	-57.2775	-126.767	172.261	-39.9423	-65.5018	177.034	-47.7222	-83.9852	184.548	-52.4644	-104.968	150.701	-12.2838	-34.9128	148.802	-1.25695	-6.91404	117.147	-5.58514	-28.0755	
59	0.491667	100.14	-21.7825	-16.5558	81.2013	-24.4624	-40.4772	75.2554	-35.1598	-66.9088	62.0406	-39.1723	-80.61	114.647	-52.7074	-87.1861	114.646	-65.8742	-106.782	117.762	-75.7953	-129.357	137.594	-56.8624	-92.0638	134.75	-68.541	-112.694	130.93	-77.608	-136.941	161.871	-61.1082	-76.6093	166.695	-76.8622	-93.8671	170.591	-94.782	-110.983	175.703	-59.7128	-56.7867	179.506	-73.8732	-71.9678	180.626	-86.6175	-89.3333	157.141	-24.3667	-40.0216	156.87	-5.52723	-11.2768	126.688	-9.486	-31.3449	
60	0.5	105.014	-6.71715	-14.0145	92.4804	-12.7108	-38.5618	77.9346	-19.6685	-63.6823	64.0254	-22.7743	-79.5481	112.942	-58.1041	-81.565	103.393	-73.6128	-99.2487	100.923	-86.204	-118.733	129.376	-64.1768	-80.4247	119.396	-79.8407	-98.0808	115.829	-98.592	-126.383	149.589	-80.0576	-67.3041	145.941	-96.8787	-78.0254	142.221	-118.969	-93.469	165.068	-78.2837	-46.2631	156.466	-94.618	-61.4636	159.758	-111.24	-72.7122	162.894	-33.3444	-35.3483	167.176	-13.4753	-11.7675	135.897	-11.1873	-33.9553	
61	0.508333	120.545	7.44671	-16.4804	104.643	13.0479	-38.6209	89.6869	6.72823	-65.2477	79.376	2.91703	-79.2444	106.784	-41.6521	-73.8944	94.4909	-59.7235	-92.0891	83.2923	-69.0705	-108.558	119.558	-61.5888	-72.26	101.655	-71.2292	-92.803	88.2987	-84.7675	-114.915	126.113	-76.3263	-57.5411	116.171	-91.7248	-67.1484	102.856	-112.975	-78.5602	138.532	-82.2671	-40.5229	130.335	-96.7665	-47.2183	117.76	-113.988	-64.1976	158.846	-42.3695	-29.5378	171.873	-24.3092	-7.71701	144.193	-6.51529	-30.7568	
62	0.516667	140.832	18.2003	-15.9137	128.936	24.5138	-39.8151	114.562	25.0117	-69.2194	105.614	30.668	-83.5646	107.342	-27.4495	-71.0531	90.6757	-35.7684	-87.3397	74.5965	-42.3247	-108.86	106.588	-48.7741	-74.1419	89.936	-50.3991	-89.4587	71.0399	-61.83	-113.463	108.232	-66.3416	-49.3526	86.7167	-74.8531	-63.7478	64.0191	-89.4407	-72.4685	115.203	-76.1622	-30.8665	97.1925	-83.1402	-42.1564	80.5219	-92.771	-54.9595	152.39	-43.6077	-23.2884	171.711	-35.167	-0.684722	153.134	-10.3794	-27.5756	
63	0.525	153.363	16.3573	-18.324	146.419	24.4048	-42.9489	137.711	31.6082	-70.4198	130.862	40.0155	-89.7794	108.005	-18.2722	-72.4709	91.2287	-16.3783	-94.9406	72.9225	-25.3493	-110.371	101.625	-37.3981	-71.3323	85.8865	-35.9379	-88.4237	64.1023	-42.0403	-116.161	94.1232	-53.6794	-46.6831	71.7275	-57.8351	-57.6739	47.4729	-61.5404	-66.8757	95.8507	-63.4321	-28.126	79.557	-63.4772	-37.645	60.5425	-72.7844	-49.3488	141.713	-47.896	-24.3581	162.746	-41.8147	2.07767	155.924	-13.3773	-27.42	
64	0.533333	158.067	11.3205	-13.8635	153.975	20.2327	-46.4454	148.767	29.485	-69.9469	143.985	35.4287	-91.1637	112.286	-13.4386	-76.4453	93.3526	-13.3643	-99.8672	77.4171	-18.896	-116.357	101.134	-31.4928	-75.3944	83.5617	-33.1006	-92.7882	68.1937	-31.4056	-119.449	87.6315	-48.8592	-49.9579	62.4594	-52.8212	-62.5256	43.1535	-51.0034	-71.9562	86.7091	-56.966	-31.2833	67.8269	-59.0203	-40.4223	49.9626	-66.0779	-49.2481	132.819	-50.7075	-23.3189	154.292	-48.1732	2.04931	154.918	-20.6308	-24.8164	
65	0.541667	154.046	9.24241	-16.8104	149.319	15.4823	-43.5091	148.269	23.9513	-70.8179	144.947	31.5297	-89.3099	112.067	-18.4655	-78.3454	94.5763	-22.0477	-100.54	84.2206	-24.3515	-119.369	98.7684	-40.0552	-79.5695	86.3253	-37.2786	-96.3382	74.0466	-35.9197	-123.183	85.4466	-51.3381	-56.4499	65.7282	-53.8924	-68.3147	41.8796	-55.4081	-81.3501	83.1684	-60.0945	-36.0283	63.3633	-63.8054	-44.9842	49.3403	-67.344	-55.5812	131.917	-52.4812	-21.8535	150.273	-47.4724	3.06149	151.485	-26.2085	-27.4912	
66	0.55	149.357	11.2018	-17.1797	146.136	17.5132	-42.3808	146.135	24.3433	-73.8929	143.353	30.7269	-90.9104	115.368	-23.9515	-83.5935	107.64	-23.8695	-104.873	97.0535	-31.2375	-130.27	109.614	-42.5575	-80.8493	97.8925	-43.4933	-103.151	87.5398	-47.5632	-133.351	92.104	-60.5859	-62.8241	73.5035	-65.5992	-77.4811	54.599	-67.7528	-90.8673	91.2763	-67.1801	-41.3475	76.8371	-70.2996	-50.9458	58.0781	-80.5182	-65.354	133.878	-56.0713	-25.6033	148.351	-48.2872	1.79488	152.038	-22.445	-24.3744	
67	0.558333	146.786	15.003	-16.3443	145.076	20.4598	-43.0118	143.951	24.511	-72.7651	144.814	35.7479	-89.5296	126.973	-24.9149	-85.7705	121.257	-26.5003	-110.481	116.148	-36.5342	-133.145	122.837	-41.3588	-88.8149	116.025	-46.6368	-108.169	111.752	-51.1725	-137.123	109.389	-63.5502	-64.4496	94.2014	-70.3215	-83.5206	74.1761	-77.7063	-101.191	103.275	-72.6603	-45.7024	89.8756	-76.6481	-64.9431	78.0356	-87.0834	-76.822	142.321	-51.1883	-24.2035	153.268	-46.5583	5.01867	154.877	-17.2306	-26.9286	
68	0.566667	146.674	16.2721	-15.7121	147.328	22.5843	-40.5021	150.548	33.4614	-71.7213	150.457	40.1114	-89.1433	137.721	-22.8681	-84.5061	135.75	-28.471	-108.897	134.377	-32.2906	-134.869	135.982	-44.5894	-90.3702	131.165	-46.7042	-110.819	131.122	-51.0727	-141.433	119.78	-65.2646	-69.111	108.144	-70.5395	-89.3703	90.6537	-80.0698	-112.207	113.098	-71.4524	-51.9616	103.209	-75.364	-65.8404	91.9645	-87.0255	-87.3804	148.871	-47.538	-25.4112	155.282	-44.2773	1.46093	157.681	-18.9938	-24.6843	
